<svg width="35" height="35" viewBox="0 0 35 35" fill="none" xmlns="http://www.w3.org/2000/svg">
<g clip-path="url(#clip0_1934_114294)">
<path d="M16.75 23.3333C16.75 23.7475 17.0858 24.0833 17.5 24.0833C17.9142 24.0833 18.25 23.7475 18.25 23.3333H16.75ZM18.25 11.6666C18.25 11.2524 17.9142 10.9166 17.5 10.9166C17.0858 10.9166 16.75 11.2524 16.75 11.6666H18.25ZM11.6667 16.7499C11.2524 16.7499 10.9167 17.0857 10.9167 17.4999C10.9167 17.9141 11.2524 18.2499 11.6667 18.2499L11.6667 16.7499ZM23.3333 18.2499C23.7475 18.2499 24.0833 17.9141 24.0833 17.4999C24.0833 17.0857 23.7475 16.7499 23.3333 16.7499L23.3333 18.2499ZM18.25 23.3333L18.25 11.6666H16.75L16.75 23.3333H18.25ZM11.6667 18.2499L23.3333 18.2499L23.3333 16.7499L11.6667 16.7499L11.6667 18.2499ZM6.6577 28.3422C12.6457 34.3303 22.3543 34.3303 28.3423 28.3422L27.2816 27.2816C21.8794 32.6838 13.1206 32.6838 7.71836 27.2816L6.6577 28.3422ZM6.6577 6.65762C0.669655 12.6457 0.669657 22.3542 6.6577 28.3422L7.71836 27.2816C2.3161 21.8793 2.3161 13.1205 7.71836 7.71828L6.6577 6.65762ZM28.3423 6.65762C22.3543 0.669582 12.6457 0.669582 6.6577 6.65762L7.71836 7.71828C13.1206 2.31603 21.8794 2.31603 27.2816 7.71828L28.3423 6.65762ZM27.2816 7.71828C32.6839 13.1205 32.6839 21.8793 27.2816 27.2816L28.3423 28.3422C34.3303 22.3542 34.3303 12.6457 28.3423 6.65762L27.2816 7.71828Z" fill="#40B6BE"/>
</g>
<defs>
<clipPath id="clip0_1934_114294">
<rect width="35" height="35" fill="white"/>
</clipPath>
</defs>
</svg>
