<svg width="46" height="46" viewBox="0 0 46 46" fill="none" xmlns="http://www.w3.org/2000/svg">
<path d="M31.6619 15.3986C31.9548 15.1057 31.9548 14.6308 31.6619 14.3379C31.3691 14.045 30.8942 14.045 30.6013 14.3379L31.6619 15.3986ZM14.3378 30.6014C14.0449 30.8943 14.0449 31.3692 14.3378 31.662C14.6307 31.9549 15.1056 31.9549 15.3985 31.662L14.3378 30.6014ZM30.6013 31.6619C30.8942 31.9548 31.3691 31.9548 31.6619 31.6619C31.9548 31.3691 31.9548 30.8942 31.6619 30.6013L30.6013 31.6619ZM15.3985 14.3378C15.1056 14.0449 14.6307 14.0449 14.3378 14.3378C14.0449 14.6307 14.0449 15.1056 14.3378 15.3985L15.3985 14.3378ZM30.6013 14.3379L14.3378 30.6014L15.3985 31.662L31.6619 15.3986L30.6013 14.3379ZM31.6619 30.6013L15.3985 14.3378L14.3378 15.3985L30.6013 31.6619L31.6619 30.6013Z" fill="#1C2731"/>
</svg>
