<svg width="20" height="20" viewBox="0 0 20 20" fill="none" xmlns="http://www.w3.org/2000/svg">
<path d="M4.91667 6.66406C4.91667 6.24985 4.58088 5.91406 4.16667 5.91406C3.75245 5.91406 3.41667 6.24985 3.41667 6.66406H4.91667ZM16.5833 6.66406C16.5833 6.24985 16.2475 5.91406 15.8333 5.91406C15.4191 5.91406 15.0833 6.24985 15.0833 6.66406H16.5833ZM12.4167 9.16406C12.4167 8.74985 12.0809 8.41406 11.6667 8.41406C11.2525 8.41406 10.9167 8.74985 10.9167 9.16406H12.4167ZM10.9167 14.1641C10.9167 14.5783 11.2525 14.9141 11.6667 14.9141C12.0809 14.9141 12.4167 14.5783 12.4167 14.1641H10.9167ZM9.08333 9.16406C9.08333 8.74985 8.74755 8.41406 8.33333 8.41406C7.91912 8.41406 7.58333 8.74985 7.58333 9.16406H9.08333ZM7.58333 14.1641C7.58333 14.5783 7.91912 14.9141 8.33333 14.9141C8.74755 14.9141 9.08333 14.5783 9.08333 14.1641H7.58333ZM17.5 4.91406C17.9142 4.91406 18.25 4.57828 18.25 4.16406C18.25 3.74985 17.9142 3.41406 17.5 3.41406V4.91406ZM2.5 3.41406C2.08579 3.41406 1.75 3.74985 1.75 4.16406C1.75 4.57828 2.08579 4.91406 2.5 4.91406V3.41406ZM12.1614 2.40623L11.5374 2.82225L12.1614 2.40623ZM7.83856 2.40623L7.21452 1.9902L7.83856 2.40623ZM7.5 19.0807H12.5V17.5807H7.5V19.0807ZM3.41667 6.66406V14.9974H4.91667V6.66406H3.41667ZM16.5833 14.9974V6.66406H15.0833V14.9974H16.5833ZM12.5 19.0807C14.7552 19.0807 16.5833 17.2526 16.5833 14.9974H15.0833C15.0833 16.4241 13.9267 17.5807 12.5 17.5807V19.0807ZM7.5 17.5807C6.07326 17.5807 4.91667 16.4241 4.91667 14.9974H3.41667C3.41667 17.2526 5.24484 19.0807 7.5 19.0807V17.5807ZM10.9167 9.16406V14.1641H12.4167V9.16406H10.9167ZM7.58333 9.16406L7.58333 14.1641H9.08333L9.08333 9.16406H7.58333ZM9.22531 2.41406H10.7747V0.914062H9.22531V2.41406ZM11.5374 2.82225L12.7093 4.58009L13.9574 3.74804L12.7855 1.9902L11.5374 2.82225ZM13.3333 3.41406H6.66667V4.91406H13.3333V3.41406ZM7.2907 4.58009L8.46259 2.82225L7.21452 1.9902L6.04263 3.74804L7.2907 4.58009ZM13.3333 4.91406H17.5V3.41406H13.3333V4.91406ZM6.66667 3.41406H2.5V4.91406H6.66667V3.41406ZM10.7747 2.41406C11.0812 2.41406 11.3674 2.56724 11.5374 2.82225L12.7855 1.9902C12.3373 1.31789 11.5827 0.914062 10.7747 0.914062V2.41406ZM9.22531 0.914062C8.41729 0.914062 7.66273 1.31789 7.21452 1.9902L8.46259 2.82225C8.6326 2.56724 8.91882 2.41406 9.22531 2.41406V0.914062Z" fill="#1C2731"/>
</svg>
