<svg width="20" height="20" viewBox="0 0 20 20" fill="none" xmlns="http://www.w3.org/2000/svg">
<path d="M19.0832 9.9974C19.0832 9.58318 18.7474 9.2474 18.3332 9.2474C17.919 9.2474 17.5832 9.58318 17.5832 9.9974H19.0832ZM9.99984 2.41406C10.4141 2.41406 10.7498 2.07828 10.7498 1.66406C10.7498 1.24985 10.4141 0.914062 9.99984 0.914062V2.41406ZM7.62873 13.322L7.52267 12.5796L7.62873 13.322ZM6.6752 12.3685L5.93274 12.2624L6.6752 12.3685ZM7.50954 8.91195L6.97921 8.38162L7.50954 8.91195ZM7.03277 9.86548L7.77524 9.97155L7.03277 9.86548ZM11.0853 12.4877L11.6156 13.018L11.0853 12.4877ZM10.1318 12.9645L10.2378 13.7069L10.1318 12.9645ZM17.8395 3.34968L17.3091 3.88001V3.88001L17.8395 3.34968ZM17.8395 5.73351L17.3091 5.20318L17.8395 5.73351ZM16.6476 2.15777L17.1779 1.62744V1.62744L16.6476 2.15777ZM14.2637 2.15777L14.7941 2.6881L14.2637 2.15777ZM13.8218 3.34969C13.8218 2.93547 13.486 2.59969 13.0718 2.59969C12.6576 2.59969 12.3218 2.93547 12.3218 3.34969L13.8218 3.34969ZM16.6475 7.67543C17.0618 7.67543 17.3975 7.33964 17.3975 6.92543C17.3975 6.51122 17.0618 6.17543 16.6475 6.17543L16.6475 7.67543ZM17.5832 9.9974V14.9974H19.0832V9.9974H17.5832ZM14.9998 17.5807H4.99984V19.0807H14.9998V17.5807ZM2.4165 14.9974V4.9974H0.916504V14.9974H2.4165ZM4.99984 2.41406H9.99984V0.914062H4.99984V2.41406ZM2.4165 4.9974C2.4165 3.57066 3.5731 2.41406 4.99984 2.41406V0.914062C2.74467 0.914062 0.916504 2.74223 0.916504 4.9974H2.4165ZM4.99984 17.5807C3.5731 17.5807 2.4165 16.4241 2.4165 14.9974H0.916504C0.916504 17.2526 2.74467 19.0807 4.99984 19.0807V17.5807ZM17.5832 14.9974C17.5832 16.4241 16.4266 17.5807 14.9998 17.5807V19.0807C17.255 19.0807 19.0832 17.2526 19.0832 14.9974H17.5832ZM16.1172 2.6881L17.3091 3.88001L18.3698 2.81935L17.1779 1.62744L16.1172 2.6881ZM17.3091 5.20318L10.555 11.9574L11.6156 13.018L18.3698 6.26384L17.3091 5.20318ZM8.03987 9.44228L14.7941 2.6881L13.7334 1.62744L6.97921 8.38162L8.03987 9.44228ZM10.0257 12.222L7.52267 12.5796L7.7348 14.0645L10.2378 13.7069L10.0257 12.222ZM7.41766 12.4746L7.77524 9.97155L6.29031 9.75942L5.93274 12.2624L7.41766 12.4746ZM7.52267 12.5796C7.46141 12.5883 7.40891 12.5358 7.41766 12.4746L5.93274 12.2624C5.78257 13.3136 6.6836 14.2147 7.7348 14.0645L7.52267 12.5796ZM6.97921 8.38162C6.60657 8.75426 6.36484 9.23772 6.29031 9.75942L7.77524 9.97155C7.80387 9.77114 7.89672 9.58543 8.03987 9.44228L6.97921 8.38162ZM10.555 11.9574C10.4118 12.1005 10.2261 12.1934 10.0257 12.222L10.2378 13.7069C10.7595 13.6324 11.243 13.3907 11.6156 13.018L10.555 11.9574ZM17.3091 3.88001C17.6745 4.2454 17.6745 4.8378 17.3091 5.20318L18.3698 6.26384C19.321 5.31267 19.321 3.77052 18.3698 2.81935L17.3091 3.88001ZM17.1779 1.62744C16.2267 0.67627 14.6846 0.67627 13.7334 1.62744L14.7941 2.6881C15.1594 2.32272 15.7518 2.32272 16.1172 2.6881L17.1779 1.62744ZM13.0718 3.34969C12.3218 3.34969 12.3218 3.35006 12.3218 3.35043C12.3218 3.35056 12.3218 3.35095 12.3218 3.35121C12.3218 3.35174 12.3218 3.35228 12.3218 3.35285C12.3218 3.35397 12.3218 3.35518 12.3218 3.35646C12.3219 3.35902 12.3219 3.36188 12.3219 3.36505C12.322 3.37137 12.3222 3.37888 12.3225 3.38754C12.323 3.40487 12.324 3.42683 12.3258 3.45312C12.3293 3.50566 12.3358 3.57566 12.348 3.66061C12.3722 3.83039 12.419 4.06098 12.5093 4.3318C12.6907 4.87605 13.0458 5.57627 13.7334 6.26384L14.794 5.20318C14.2897 4.69885 14.0489 4.20715 13.9323 3.85746C13.8736 3.68132 13.8459 3.53944 13.8329 3.44848C13.8264 3.40307 13.8236 3.37063 13.8225 3.35334C13.8219 3.34471 13.8217 3.3399 13.8217 3.33918C13.8217 3.33883 13.8217 3.3395 13.8217 3.34124C13.8218 3.34211 13.8218 3.34324 13.8218 3.34465C13.8218 3.34535 13.8218 3.34612 13.8218 3.34696C13.8218 3.34738 13.8218 3.34782 13.8218 3.34827C13.8218 3.3485 13.8218 3.34885 13.8218 3.34897C13.8218 3.34932 13.8218 3.34969 13.0718 3.34969ZM13.7334 6.26384C14.421 6.95142 15.1212 7.30654 15.6654 7.48795C15.9363 7.57823 16.1668 7.62501 16.3366 7.64927C16.4216 7.6614 16.4916 7.66794 16.5441 7.67144C16.5704 7.67319 16.5924 7.67419 16.6097 7.67475C16.6184 7.67503 16.6259 7.6752 16.6322 7.6753C16.6353 7.67535 16.6382 7.67538 16.6408 7.6754C16.6421 7.67541 16.6433 7.67542 16.6444 7.67542C16.645 7.67543 16.6455 7.67543 16.646 7.67543C16.6463 7.67543 16.6467 7.67543 16.6468 7.67543C16.6472 7.67543 16.6475 7.67543 16.6475 6.92543C16.6475 6.17543 16.6479 6.17543 16.6483 6.17543C16.6484 6.17543 16.6487 6.17543 16.649 6.17543C16.6494 6.17543 16.6499 6.17543 16.6503 6.17543C16.6511 6.17544 16.6519 6.17544 16.6526 6.17545C16.654 6.17546 16.6551 6.17547 16.656 6.17549C16.6577 6.17552 16.6584 6.17554 16.6581 6.17553C16.6573 6.17551 16.6525 6.17534 16.6439 6.17476C16.6266 6.17361 16.5942 6.17083 16.5488 6.16434C16.4578 6.15135 16.3159 6.12364 16.1398 6.06493C15.7901 5.94836 15.2984 5.70752 14.794 5.20318L13.7334 6.26384Z" fill="#1C2731"/>
</svg>
