<svg width="39" height="39" viewBox="0 0 39 39" fill="none" xmlns="http://www.w3.org/2000/svg">
<path d="M25.1304 16.25L25.3154 16.9768C25.6478 16.8923 25.8804 16.593 25.8804 16.25H25.1304ZM25.8804 12.1875C25.8804 11.7733 25.5446 11.4375 25.1304 11.4375C24.7162 11.4375 24.3804 11.7733 24.3804 12.1875H25.8804ZM21.7525 16.3357C21.3511 16.4378 21.1085 16.846 21.2107 17.2475C21.3128 17.6489 21.721 17.8915 22.1225 17.7893L21.7525 16.3357ZM26.5216 21.3119C26.6248 20.9108 26.3833 20.5019 25.9822 20.3987C25.581 20.2954 25.1721 20.5369 25.0689 20.9381L26.5216 21.3119ZM19.5 25.25C16.3244 25.25 13.75 22.6756 13.75 19.5H12.25C12.25 23.5041 15.4959 26.75 19.5 26.75V25.25ZM13.75 19.5C13.75 16.3244 16.3244 13.75 19.5 13.75V12.25C15.4959 12.25 12.25 15.4959 12.25 19.5H13.75ZM19.5 13.75C21.6274 13.75 23.4859 14.9049 24.4812 16.6255L25.7796 15.8745C24.5272 13.7094 22.1845 12.25 19.5 12.25V13.75ZM25.8804 16.25V12.1875H24.3804V16.25H25.8804ZM24.9455 15.5232L21.7525 16.3357L22.1225 17.7893L25.3154 16.9768L24.9455 15.5232ZM25.0689 20.9381C24.4305 23.4182 22.1782 25.25 19.5 25.25V26.75C22.8792 26.75 25.7168 24.4388 26.5216 21.3119L25.0689 20.9381Z" fill="#40B6BE"/>
<path d="M4.875 19.5C4.875 27.5772 11.4228 34.125 19.5 34.125C27.5772 34.125 34.125 27.5772 34.125 19.5C34.125 11.4228 27.5772 4.875 19.5 4.875C11.4228 4.875 4.875 11.4228 4.875 19.5Z" stroke="#40B6BE" stroke-width="1.5" stroke-linecap="round" stroke-linejoin="round"/>
</svg>
