<svg width="22" height="22" viewBox="0 0 22 22" fill="none" xmlns="http://www.w3.org/2000/svg">
<path d="M17.4888 16.428C17.1959 16.1351 16.7211 16.1351 16.4282 16.428C16.1353 16.7209 16.1353 17.1958 16.4282 17.4887L17.4888 16.428ZM19.6365 20.697C19.9294 20.9899 20.4043 20.9899 20.6972 20.697C20.9901 20.4041 20.9901 19.9292 20.6972 19.6363L19.6365 20.697ZM20.0002 10.5417C20.0002 5.31797 15.7655 1.08333 10.5418 1.08333V2.58333C14.9371 2.58333 18.5002 6.1464 18.5002 10.5417H20.0002ZM10.5418 1.08333C5.31814 1.08333 1.0835 5.31797 1.0835 10.5417H2.5835C2.5835 6.1464 6.14656 2.58333 10.5418 2.58333V1.08333ZM1.0835 10.5417C1.0835 15.7654 5.31814 20 10.5418 20V18.5C6.14656 18.5 2.5835 14.9369 2.5835 10.5417H1.0835ZM10.5418 20C15.7655 20 20.0002 15.7654 20.0002 10.5417H18.5002C18.5002 14.9369 14.9371 18.5 10.5418 18.5V20ZM16.4282 17.4887L19.6365 20.697L20.6972 19.6363L17.4888 16.428L16.4282 17.4887Z" fill="#1C2731"/>
</svg>
